<?xml version="1.0" encoding="UTF-8"?>
<!DOCTYPE svg PUBLIC "-//W3C//DTD SVG 1.1//EN"
    "http://www.w3.org/Graphics/SVG/1.1/DTD/svg11.dtd">
<svg xmlns="http://www.w3.org/2000/svg" xmlns:xlink="http://www.w3.org/1999/xlink" version="1.1" width="215.4216867469879" height="300.0" font-size="1" viewBox="0 0 215 300"><g><g fill="rgb(0,0,0)" fill-opacity="0.0"><g stroke="rgb(0,0,0)" stroke-opacity="1.0" stroke-width="1.0e-2" stroke-linecap="butt" stroke-linejoin="miter" font-size="1.0em" stroke-miterlimit="10.0"><g transform="matrix(37.70375620127568,0.0,0.0,37.70375620127568,75.40751240255136,263.92629340892984)"><g stroke="rgb(70,130,180)" stroke-opacity="1.0" stroke-width="2.0e-2"><path d="M -2.0,-4.0 h 0.0 l 3.3333333333333335e-3,-7.309274122440305e-4 l 3.3333333333333335e-3,-2.190929986470958e-3 l 3.3333333333333327e-3,-3.6453795038247703e-3 l 3.333333333333332e-3,-5.090586232597409e-3 l 3.333333333333332e-3,-6.522878876509839e-3 l 3.333333333333332e-3,-7.93861190116369e-3 l 3.3333333333333296e-3,-9.334172812875735e-3 l 3.3333333333333296e-3,-1.0705989376436787e-2 l 3.3333333333333296e-3,-1.2050536758446279e-2 l 3.3333333333333296e-3,-1.3364344583007365e-2 l 3.3333333333333296e-3,-1.4644003886724238e-2 l 3.3333333333333296e-3,-1.588617396012498e-2 l 3.3333333333333296e-3,-1.7087589062835494e-2 l 3.3333333333333296e-3,-1.8245065000058687e-2 l 3.3333333333333296e-3,-1.9355505548159714e-2 l 3.3333333333333296e-3,-2.0415908717430736e-2 l 3.3333333333333296e-3,-2.14233728404006e-2 l 3.3333333333333296e-3,-2.2375102474366484e-2 l 3.3333333333333296e-3,-2.3268414107159935e-2 l 3.3333333333333296e-3,-2.4100741655513513e-2 l 3.3333333333333296e-3,-2.486964174576295e-2 l 3.3333333333333296e-3,-2.557279876701575e-2 l 3.3333333333333214e-3,-2.6208029687322165e-2 l 3.3333333333333214e-3,-2.677328862381191e-2 l 3.3333333333333214e-3,-2.7266671158202166e-2 l 3.3333333333333214e-3,-2.7686418389538003e-2 l 3.3333333333333214e-3,-2.803092071650315e-2 l 3.3333333333333214e-3,-2.8298721342118388e-2 l 3.3333333333333214e-3,-2.8488519494154874e-2 l 3.3333333333333214e-3,-2.8599173355084162e-2 l 3.3333333333333214e-3,-2.8629702695931514e-2 l 3.3333333333333214e-3,-2.857929120890923e-2 l 3.3333333333333214e-3,-2.8447288534268256e-2 l 3.3333333333333214e-3,-2.8233211977341188e-2 l 3.3333333333333214e-3,-2.79367479123232e-2 l 3.3333333333333214e-3,-2.7557752869884794e-2 l 3.3333333333333214e-3,-2.7096254306297057e-2 l 3.3333333333333214e-3,-2.6552451052312437e-2 l 3.3333333333333214e-3,-2.5926713440628024e-2 l 3.3333333333333214e-3,-2.5219583111333765e-2 l 3.3333333333333214e-3,-2.4431772495333848e-2 l 3.3333333333333214e-3,-2.3564163976311392e-2 l 3.3333333333333214e-3,-2.2617808732380618e-2 l 3.3333333333333214e-3,-2.159392525915893e-2 l 3.3333333333333214e-3,-2.049389757656117e-2 l 3.3333333333333214e-3,-1.931927312219539e-2 l 3.3333333333333214e-3,-1.8071760334802733e-2 l 3.3333333333333214e-3,-1.6753225931752547e-2 l 3.3333333333333214e-3,-1.5365691885147081e-2 l 3.3333333333333214e-3,-1.3911332101656015e-2 l 3.3333333333333214e-3,-1.2392468811716795e-2 l 3.3333333333333214e-3,-1.0811568674287009e-2 l 3.3333333333333214e-3,-9.17123860383362e-3 l 3.3333333333333214e-3,-7.474221326772279e-3 l 3.3333333333333214e-3,-5.723390675034412e-3 l 3.3333333333333214e-3,-3.921746624951872e-3 l 3.3333333333333214e-3,-2.0724100900917364e-3 l 3.3333333333333214e-3,-1.7861747713315834e-4 l 3.3333333333333214e-3,1.756284985682699e-3 l 3.3333333333333214e-3,3.7288471375904186e-3 l 3.3333333333333214e-3,5.735520981475062e-3 l 3.3333333333333214e-3,7.772666976457621e-3 l 3.3333333333333214e-3,9.836560515798731e-3 l 3.3333333333333214e-3,1.192339857868363e-2 l 3.3333333333333214e-3,1.4029306544124265e-2 l 3.3333333333333214e-3,1.6150345154920698e-2 l 3.3333333333333214e-3,1.8282517619326866e-2 l 3.3333333333333214e-3,2.0421776837816596e-2 l 3.3333333333333214e-3,2.2564032742109996e-2 l 3.3333333333333214e-3,2.470515973338283e-2 l 3.3333333333333214e-3,2.684100420642499e-2 l 3.3333333333333214e-3,2.896739214630678e-2 l 3.3333333333333214e-3,3.1080136783996737e-2 l 3.3333333333333214e-3,3.317504629723522e-2 l 3.3333333333333214e-3,3.5247931542874034e-2 l 3.3333333333333214e-3,3.729461380683066e-2 l 3.3333333333333214e-3,3.931093255773735e-2 l 3.3333333333333214e-3,4.1292753190361076e-2 l 3.3333333333333214e-3,4.323597474486354e-2 l 3.3333333333333214e-3,4.513653758798328e-2 l 3.3333333333333214e-3,4.69904310423086e-2 l 3.3333333333333214e-3,4.879370094983149e-2 l 3.3333333333333214e-3,5.0542457156132425e-2 l 3.3333333333333214e-3,5.2232880901617415e-2 l 3.3333333333333214e-3,5.386123210640412e-2 l 3.3333333333333214e-3,5.5423856535630034e-2 l 3.3333333333333214e-3,5.6917192832132556e-2 l 3.3333333333333214e-3,5.833777940366919e-2 l 3.3333333333333214e-3,5.96822611521271e-2 l 3.3333333333333214e-3,6.0947396032362953e-2 l 3.3333333333333214e-3,6.2130061428682014e-2 l 3.3333333333333214e-3,6.32272603372085e-2 l 3.3333333333333214e-3,6.423612734274993e-2 l 3.3333333333333214e-3,6.515393437913763e-2 l 3.3333333333333214e-3,6.597809626232255e-2 l 3.3333333333333214e-3,6.670617598598073e-2 l 3.3333333333333214e-3,6.733588976971588e-2 l 3.3333333333333214e-3,6.786511185040248e-2 l 3.3333333333333214e-3,6.829187900767802e-2 l 3.3333333333333214e-3,6.861439481498044e-2 l 3.3333333333333214e-3,6.883103360808873e-2 l 3.3333333333333214e-3,6.894034416353984e-2 l 3.3333333333333214e-3,6.894105307982101e-2 l 3.3333333333333214e-3,6.883206785478302e-2 l 3.3333333333333214e-3,6.861247965319095e-2 l 3.3333333333333214e-3,6.828156575889238e-2 l 3.3333333333333214e-3,6.78387917066654e-2 l 3.3333333333333214e-3,6.728381308928444e-2 l 3.3333333333333214e-3,6.66164770359991e-2 l 3.3333333333333214e-3,6.58368233591275e-2 l 3.3333333333333214e-3,6.494508536606086e-2 l 3.3333333333333214e-3,6.394169033460351e-2 l 3.3333333333333214e-3,6.282725965007147e-2 l 3.3333333333333214e-3,6.160260860326561e-2 l 3.3333333333333214e-3,6.0268745848958805e-2 l 3.3333333333333214e-3,5.8826872525148954e-2 l 3.3333333333333214e-3,5.727838103393934e-2 l 3.3333333333333214e-3,5.562485348550883e-2 l 3.3333333333333214e-3,5.3868059807166135e-2 l 3.3333333333333214e-3,5.2009955520152196e-2 l 3.3333333333333214e-3,5.0052679187413074e-2 l 3.3333333333333214e-3,4.799854953608074e-2 l 3.3333333333333214e-3,4.585006225908883e-2 l 3.3333333333333214e-3,4.3609886500827866e-2 l 3.3333333333333214e-3,4.128086103232542e-2 l 3.3333333333333214e-3,3.8865990122011196e-2 l 3.3333333333333214e-3,3.6368439108627304e-2 l 3.3333333333333214e-3,3.37915296834268e-2 l 3.3333333333333214e-3,3.1138734889230357e-2 l 3.3333333333333214e-3,2.8413673844524867e-2 l 3.3333333333333214e-3,2.5620106201199144e-2 l 3.3333333333333214e-3,2.2761926345002403e-2 l 3.3333333333333214e-3,1.98431573482849e-2 l 3.3333333333333214e-3,1.6867944685042713e-2 l 3.3333333333333214e-3,1.3840549718641015e-2 l 3.3333333333333214e-3,1.0765342973094172e-2 l 3.3333333333333214e-3,7.646797199095667e-3 l 3.3333333333333214e-3,4.4894802464019445e-3 l 3.3333333333333214e-3,1.2980477545162517e-3 l 3.3333333333333214e-3,-1.9227643260653071e-3 l 3.3333333333333214e-3,-5.168147369451592e-3 l 3.3333333333333214e-3,-8.433227853927416e-3 l 3.3333333333333214e-3,-1.1713075272373197e-2 l 3.3333333333333214e-3,-1.5002710160138988e-2 l 3.3333333333333214e-3,-1.8297112226783763e-2 l 3.3333333333333214e-3,-2.1591228577884647e-2 l 3.3333333333333214e-3,-2.487998201294328e-2 l 3.3333333333333214e-3,-2.8158279385280593e-2 l 3.3333333333333214e-3,-3.1421020009674394e-2 l 3.3333333333333214e-3,-3.466310410340456e-2 l 3.3333333333333214e-3,-3.7879441246297385e-2 l 3.3333333333333214e-3,-4.106495884529693e-2 l 3.3333333333333214e-3,-4.4214610589075054e-2 l 3.3333333333333214e-3,-4.732338487822363e-2 l 3.3333333333333214e-3,-5.038631321652254e-2 l 3.3333333333333214e-3,-5.339847854890467e-2 l 3.3333333333333214e-3,-5.635502353180033e-2 l 3.3333333333333214e-3,-5.925115872157516e-2 l 3.3333333333333214e-3,-6.2082170667013825e-2 l 3.3333333333333214e-3,-6.484342989187064e-2 l 3.3333333333333214e-3,-6.753039875368683e-2 l 3.3333333333333214e-3,-7.013863916533125e-2 l 3.3333333333333214e-3,-7.266382016586803e-2 l 3.3333333333333214e-3,-7.510172532767712e-2 l 3.3333333333333214e-3,-7.744825998693167e-2 l 3.3333333333333214e-3,-7.969945828491143e-2 l 3.3333333333333214e-3,-8.185149000793102e-2 l 3.3333333333333214e-3,-8.390066721390205e-2 l 3.3333333333333214e-3,-8.58434506340448e-2 l 3.3333333333333214e-3,-8.767645583856803e-2 l 3.3333333333333214e-3,-8.939645915546923e-2 l 3.3333333333333214e-3,-9.100040333217296e-2 l 3.3333333333333214e-3,-9.248540292999399e-2 l 3.3333333333333214e-3,-9.384874944201699e-2 l 3.3333333333333214e-3,-9.508791612527351e-2 l 3.3333333333333214e-3,-9.62005625387573e-2 l 3.3333333333333214e-3,-9.718453877921862e-2 l 3.3333333333333214e-3,-9.803788940715763e-2 l 3.3333333333333214e-3,-9.8758857056059e-2 l 3.3333333333333214e-3,-9.934588571840672e-2 l 3.333333333333388e-3,-9.979762370248513e-2 l 3.3333333333333214e-3,-0.10011292625467215 l 3.3333333333333214e-3,-0.10029085784241144 l 3.3333333333333214e-3,-0.10033069409362659 l 3.3333333333333214e-3,-0.10023192338894218 l 3.3333333333333214e-3,-9.999424810368573e-2 l 3.3333333333333214e-3,-9.961758549724009e-2 l 3.3333333333333214e-3,-9.910206824782858e-2 l 3.3333333333333214e-3,-9.844804463157414e-2 l 3.3333333333333214e-3,-9.765607834513479e-2 l 3.3333333333333214e-3,-9.672694797195042e-2 l 3.3333333333333214e-3,-9.566164609259975e-2 l 3.3333333333333214e-3,-9.446137804052485e-2 l 3.3333333333333214e-3,-9.312756030492031e-2 l 3.3333333333333214e-3,-9.166181858311573e-2 l 3.3333333333333214e-3,-9.006598548551903e-2 l 3.3333333333333214e-3,-8.834209789670888e-2 l 3.3333333333333214e-3,-8.64923939967902e-2 l 3.3333333333333214e-3,-8.451930994786705e-2 l 3.3333333333333214e-3,-8.242547625087682e-2 l 3.3333333333333214e-3,-8.021371377878839e-2 l 3.3333333333333214e-3,-7.788702949249571e-2 l 3.3333333333333214e-3,-7.544861184650753e-2 l 3.3333333333333214e-3,-7.290182589192995e-2 l 3.3333333333333214e-3,-7.025020808474502e-2 l 3.3333333333333214e-3,-6.749746080800922e-2 l 3.3333333333333214e-3,-6.464744661697952e-2 l 3.3333333333333214e-3,-6.170418221667118e-2 l 3.3333333333333214e-3,-5.867183218185057e-2 l 3.3333333333333214e-3,-5.555470242989402e-2 l 3.3333333333333214e-3,-5.2357233457298036e-2 l 3.3333333333333214e-3,-4.90839933511652e-2 l 3.3333333333333214e-3,-4.573967058723716e-2 l 3.3333333333333214e-3,-4.232906662652536e-2 l 3.3333333333333214e-3,-3.8857088322842404e-2 l 3.3333333333333214e-3,-3.532874015394616e-2 l 3.3333333333333214e-3,-3.1749116289244594e-2 l 3.3333333333333214e-3,-2.8123392507324763e-2 l 3.3333333333333214e-3,-2.4456817976818757e-2 l 3.3333333333333214e-3,-2.0754706914361987e-2 l 3.3333333333333214e-3,-1.702243013359095e-2 l 3.3333333333333214e-3,-1.326540649932384e-2 l 3.3333333333333214e-3,-9.48909430125755e-3 l 3.3333333333333214e-3,-5.698982561593513e-3 l 3.3333333333333214e-3,-1.9005822911837278e-3 l 3.3333333333333214e-3,1.9005822911780657e-3 l 3.3333333333333214e-3,5.698982561588184e-3 l 3.3333333333333214e-3,9.489094301252221e-3 l 3.3333333333333214e-3,1.326540649931851e-2 l 3.3333333333333214e-3,1.702243013358562e-2 l 3.3333333333333214e-3,2.0754706914356325e-2 l 3.3333333333333214e-3,2.4456817976813094e-2 l 3.3333333333333214e-3,2.8123392507318767e-2 l 3.3333333333333214e-3,3.17491162892396e-2 l 3.3333333333333214e-3,3.532874015394083e-2 l 3.3333333333333214e-3,3.885708832283841e-2 l 3.3333333333333214e-3,4.232906662652003e-2 l 3.3333333333333214e-3,4.5739670587232495e-2 l 3.3333333333333214e-3,4.908399335115954e-2 l 3.3333333333333214e-3,5.235723345729304e-2 l 3.3333333333333214e-3,5.5554702429889025e-2 l 3.3333333333333214e-3,5.867183218184624e-2 l 3.3333333333333214e-3,6.170418221666851e-2 l 3.3333333333333214e-3,6.464744661697519e-2 l 3.3333333333333214e-3,6.749746080800523e-2 l 3.3333333333333214e-3,7.025020808473936e-2 l 3.3333333333333214e-3,7.290182589192562e-2 l 3.3333333333333214e-3,7.544861184650453e-2 l 3.3333333333333214e-3,7.788702949249471e-2 l 3.3333333333333214e-3,8.021371377878472e-2 l 3.3333333333333214e-3,8.242547625087382e-2 l 3.3333333333333214e-3,8.451930994786172e-2 l 3.3333333333333214e-3,8.649239399678788e-2 l 3.3333333333333214e-3,8.834209789670555e-2 l 3.3333333333333214e-3,9.006598548551686e-2 l 3.3333333333333214e-3,9.166181858311573e-2 l 3.3333333333333214e-3,9.312756030491831e-2 l 3.3333333333333214e-3,9.446137804052285e-2 l 3.3333333333333214e-3,9.566164609259575e-2 l 3.3333333333333214e-3,9.672694797194925e-2 l 3.3333333333333214e-3,9.765607834513362e-2 l 3.3333333333333214e-3,9.84480446315753e-2 l 3.3333333333333214e-3,9.910206824782783e-2 l 3.3333333333333214e-3,9.961758549723942e-2 l 3.3333333333333214e-3,9.999424810368523e-2 l 3.3333333333333214e-3,0.10023192338893944 l 3.3333333333333214e-3,0.10033069409362651 l 3.3333333333333214e-3,0.10029085784241165 l 3.3333333333333214e-3,0.10011292625467502 l 3.3333333333333214e-3,9.979762370248318e-2 l 3.3333333333333214e-3,9.934588571840747e-2 l 3.3333333333333214e-3,9.875885705605997e-2 l 3.3333333333333214e-3,9.803788940715634e-2 l 3.3333333333333214e-3,9.718453877921991e-2 l 3.3333333333333214e-3,9.62005625387588e-2 l 3.3333333333333214e-3,9.508791612527792e-2 l 3.3333333333333214e-3,9.384874944201865e-2 l 3.3333333333333214e-3,9.248540292999616e-2 l 3.3333333333333214e-3,9.10004033321728e-2 l 3.3333333333333214e-3,8.939645915547206e-2 l 3.3333333333333214e-3,8.767645583857037e-2 l 3.3333333333333214e-3,8.584345063405213e-2 l 3.3333333333333214e-3,8.390066721390271e-2 l 3.3333333333333214e-3,8.185149000793418e-2 l 3.3333333333333214e-3,7.969945828491476e-2 l 3.3333333333333214e-3,7.7448259986933e-2 l 3.3333333333333214e-3,7.510172532768078e-2 l 3.3333333333333214e-3,7.26638201658717e-2 l 3.3333333333333214e-3,7.013863916533725e-2 l 3.3333333333333214e-3,6.753039875369016e-2 l 3.3333333333333214e-3,6.484342989187464e-2 l 3.3333333333333214e-3,6.2082170667018155e-2 l 3.3333333333333214e-3,5.925115872157816e-2 l 3.3333333333333214e-3,5.6355023531803994e-2 l 3.3333333333333214e-3,5.3398478548912e-2 l 3.3333333333333214e-3,5.038631321652587e-2 l 3.3333333333333214e-3,4.732338487822829e-2 l 3.3333333333333214e-3,4.4214610589079384e-2 l 3.3333333333333214e-3,4.106495884530026e-2 l 3.3333333333333214e-3,3.787944124630238e-2 l 3.3333333333333214e-3,3.466310410340956e-2 l 3.3333333333333214e-3,3.1421020009680056e-2 l 3.3333333333333214e-3,2.8158279385285256e-2 l 3.3333333333333214e-3,2.4879982012947943e-2 l 3.3333333333333214e-3,2.1591228577889976e-2 l 3.3333333333333214e-3,1.829711222678876e-2 l 3.3333333333333214e-3,1.5002710160142985e-2 l 3.3333333333333214e-3,1.1713075272378526e-2 l 3.3333333333333214e-3,8.433227853932412e-3 l 3.3333333333333214e-3,5.168147369455922e-3 l 3.3333333333333214e-3,1.9227643260703031e-3 l 3.3333333333333214e-3,-1.2980477545115887e-3 l 3.3333333333333214e-3,-4.489480246397615e-3 l 3.3333333333333214e-3,-7.646797199090005e-3 l 3.3333333333333214e-3,-1.0765342973090508e-2 l 3.3333333333333214e-3,-1.3840549718637019e-2 l 3.3333333333333214e-3,-1.6867944685037717e-2 l 3.3333333333333214e-3,-1.9843157348279905e-2 l 3.3333333333333214e-3,-2.2761926344997407e-2 l 3.3333333333333214e-3,-2.562010620119548e-2 l 3.3333333333333214e-3,-2.8413673844521203e-2 l 3.3333333333333214e-3,-3.113873488922636e-2 l 3.3333333333333214e-3,-3.379152968342314e-2 l 3.3333333333333214e-3,-3.636843910862397e-2 l 3.3333333333333214e-3,-3.886599012200653e-2 l 3.3333333333333214e-3,-4.128086103232209e-2 l 3.3333333333333214e-3,-4.36098865008242e-2 l 3.3333333333333214e-3,-4.585006225908783e-2 l 3.3333333333333214e-3,-4.799854953607674e-2 l 3.3333333333333214e-3,-5.0052679187410076e-2 l 3.3333333333333214e-3,-5.2009955520148865e-2 l 3.3333333333333214e-3,-5.3868059807161806e-2 l 3.3333333333333214e-3,-5.562485348550683e-2 l 3.3333333333333214e-3,-5.727838103393701e-2 l 3.3333333333333214e-3,-5.882687252514829e-2 l 3.3333333333333214e-3,-6.0268745848956806e-2 l 3.3333333333333214e-3,-6.160260860326394e-2 l 3.3333333333333214e-3,-6.282725965006897e-2 l 3.3333333333333214e-3,-6.394169033460168e-2 l 3.3333333333333214e-3,-6.494508536605886e-2 l 3.3333333333333214e-3,-6.583682335912883e-2 l 3.3333333333333214e-3,-6.661647703599793e-2 l 3.3333333333333214e-3,-6.728381308928294e-2 l 3.3333333333333214e-3,-6.783879170666357e-2 l 3.3333333333333214e-3,-6.828156575889188e-2 l 3.3333333333333214e-3,-6.861247965318962e-2 l 3.3333333333333214e-3,-6.883206785478285e-2 l 3.3333333333333214e-3,-6.894105307982334e-2 l 3.3333333333333214e-3,-6.8940344163539e-2 l 3.3333333333333214e-3,-6.883103360808915e-2 l 3.3333333333333214e-3,-6.861439481497994e-2 l 3.3333333333333214e-3,-6.829187900767777e-2 l 3.3333333333333214e-3,-6.786511185040306e-2 l 3.3333333333333214e-3,-6.733588976971938e-2 l 3.3333333333333214e-3,-6.670617598598169e-2 l 3.3333333333333214e-3,-6.597809626232293e-2 l 3.3333333333333214e-3,-6.515393437913793e-2 l 3.3333333333333214e-3,-6.423612734275139e-2 l 3.3333333333333214e-3,-6.32272603372093e-2 l 3.3333333333333214e-3,-6.213006142868374e-2 l 3.3333333333333214e-3,-6.094739603236708e-2 l 3.3333333333333214e-3,-5.968226115212827e-2 l 3.3333333333333214e-3,-5.833777940367121e-2 l 3.3333333333333214e-3,-5.691719283213393e-2 l 3.3333333333333214e-3,-5.542385653563228e-2 l 3.3333333333333214e-3,-5.386123210640591e-2 l 3.3333333333333214e-3,-5.223288090162183e-2 l 3.3333333333333214e-3,-5.054245715613476e-2 l 3.3333333333333214e-3,-4.8793700949833485e-2 l 3.3333333333333214e-3,-4.699043104231093e-2 l 3.3333333333333214e-3,-4.5136537587986025e-2 l 3.3333333333333214e-3,-4.3235974744865874e-2 l 3.3333333333333214e-3,-4.129275319036382e-2 l 3.3333333333333214e-3,-3.931093255774201e-2 l 3.3333333333333214e-3,-3.729461380683333e-2 l 3.3333333333333214e-3,-3.5247931542876865e-2 l 3.3333333333333214e-3,-3.317504629723772e-2 l 3.3333333333333214e-3,-3.1080136783999568e-2 l 3.3333333333333214e-3,-2.8967392146310278e-2 l 3.3333333333333214e-3,-2.684100420642782e-2 l 3.3333333333333214e-3,-2.470515973338666e-2 l 3.3333333333333214e-3,-2.2564032742112827e-2 l 3.3333333333333214e-3,-2.0421776837820427e-2 l 3.3333333333333214e-3,-1.828251761932953e-2 l 3.3333333333333214e-3,-1.615034515492353e-2 l 3.3333333333333214e-3,-1.4029306544127262e-2 l 3.3333333333333214e-3,-1.1923398578687627e-2 l 3.3333333333333214e-3,-9.836560515801562e-3 l 3.3333333333333214e-3,-7.772666976460285e-3 l 3.3333333333333214e-3,-5.735520981477726e-3 l 3.3333333333333214e-3,-3.7288471375932497e-3 l 3.3333333333333214e-3,-1.7562849856865292e-3 l 3.3333333333333214e-3,1.7861747713066034e-4 l 3.3333333333333214e-3,2.0724100900892384e-3 l 3.3333333333333214e-3,3.92174662494954e-3 l 3.3333333333333214e-3,5.723390675030915e-3 l 3.3333333333333214e-3,7.474221326769781e-3 l 3.3333333333333214e-3,9.171238603831455e-3 l 3.3333333333333214e-3,1.081156867428451e-2 l 3.3333333333333214e-3,1.2392468811714463e-2 l 3.3333333333333214e-3,1.3911332101654184e-2 l 3.3333333333333214e-3,1.5365691885145083e-2 l 3.3333333333333214e-3,1.675322593175055e-2 l 3.3333333333333214e-3,1.80717603348009e-2 l 3.3333333333333214e-3,1.9319273122192393e-2 l 3.3333333333333214e-3,2.0493897576559672e-2 l 3.3333333333333214e-3,2.159392525915893e-2 l 3.3333333333333214e-3,2.261780873237912e-2 l 3.3333333333333214e-3,2.356416397630906e-2 l 3.3333333333333214e-3,2.4431772495332515e-2 l 3.3333333333333214e-3,2.52195831113326e-2 l 3.3333333333333214e-3,2.592671344062719e-2 l 3.3333333333333214e-3,2.6552451052312187e-2 l 3.3333333333333214e-3,2.7096254306296225e-2 l 3.3333333333333214e-3,2.7557752869884128e-2 l 3.3333333333333214e-3,2.7936747912322785e-2 l 3.3333333333333214e-3,2.8233211977340855e-2 l 3.3333333333333214e-3,2.8447288534266674e-2 l 3.3333333333333214e-3,2.857929120890923e-2 l 3.3333333333333214e-3,2.8629702695933013e-2 l 3.3333333333333214e-3,2.859917335508433e-2 l 3.3333333333333214e-3,2.848851949415404e-2 l 3.3333333333333214e-3,2.8298721342118804e-2 l 3.3333333333333214e-3,2.80309207165034e-2 l 3.3333333333333214e-3,2.768641838953867e-2 l 3.3333333333333214e-3,2.7266671158202832e-2 l 3.3333333333333214e-3,2.6773288623813327e-2 l 3.3333333333333214e-3,2.6208029687322956e-2 l 3.3333333333333214e-3,2.5572798767016666e-2 l 3.3333333333333214e-3,2.486964174576399e-2 l 3.3333333333333214e-3,2.4100741655513847e-2 l 3.3333333333333214e-3,2.32684141071611e-2 l 3.3333333333333214e-3,2.2375102474368982e-2 l 3.3333333333333214e-3,2.1423372840402015e-2 l 3.3333333333333214e-3,2.0415908717431527e-2 l 3.3333333333333214e-3,1.9355505548161234e-2 l 3.3333333333333214e-3,1.8245065000060373e-2 l 3.3333333333333214e-3,1.7087589062837222e-2 l 3.3333333333333214e-3,1.588617396012676e-2 l 3.3333333333333214e-3,1.4644003886726435e-2 l 3.3333333333333214e-3,1.3364344583009249e-2 l 3.3333333333333214e-3,1.2050536758448235e-2 l 3.3333333333333214e-3,1.0705989376438796e-2 l 3.3333333333333214e-3,9.33417281287751e-3 l 3.3333333333333214e-3,7.938611901165824e-3 l 3.3333333333333214e-3,6.522878876512347e-3 l 3.3333333333333214e-3,5.09058623259954e-3 l 3.3333333333333214e-3,3.6453795038268364e-3 l 3.3333333333333214e-3,2.1909299864731873e-3 l 3.3333333333333214e-3,7.309274122462801e-4 l 3.3333333333333214e-3,-7.309274122417663e-4 l 3.3333333333333214e-3,-2.1909299864686853e-3 l 3.3333333333333214e-3,-3.645379503822608e-3 l 3.3333333333333214e-3,-5.090586232595176e-3 l 3.3333333333333214e-3,-6.5228788765076115e-3 l 3.3333333333333214e-3,-7.938611901161487e-3 l 3.3333333333333214e-3,-9.334172812873227e-3 l 3.3333333333333214e-3,-1.0705989376434596e-2 l 3.3333333333333214e-3,-1.205053675844413e-2 l 3.3333333333333214e-3,-1.3364344583006053e-2 l 3.3333333333333214e-3,-1.4644003886721366e-2 l 3.3333333333333214e-3,-1.5886173960123356e-2 l 3.3333333333333214e-3,-1.70875890628346e-2 l 3.3333333333333214e-3,-1.8245065000055835e-2 l 3.3333333333333214e-3,-1.935550554815836e-2 l 3.3333333333333214e-3,-2.0415908717427843e-2 l 3.3333333333333214e-3,-2.1423372840400225e-2 l 3.3333333333333214e-3,-2.2375102474363612e-2 l 3.3333333333333214e-3,-2.3268414107159727e-2 l 3.3333333333333214e-3,-2.4100741655512806e-2 l 3.3333333333333214e-3,-2.4869641745760285e-2 l 3.3333333333333214e-3,-2.5572798767016125e-2 l 3.3333333333333214e-3,-2.6208029687319667e-2 l 3.3333333333333214e-3,-2.677328862381162e-2 l 3.3333333333333214e-3,-2.7266671158199876e-2 l 3.3333333333333214e-3,-2.7686418389539003e-2 l 3.3333333333333214e-3,-2.803092071650415e-2 l 3.3333333333333214e-3,-2.8298721342116473e-2 l 3.3333333333333214e-3,-2.8488519494155207e-2 l 3.3333333333333214e-3,-2.859917335508233e-2 l 3.3333333333333214e-3,-2.862970269593318e-2 l 3.3333333333333214e-3,-2.857929120890998e-2 l 3.3333333333333214e-3,-2.8447288534266674e-2 l 3.3333333333333214e-3,-2.8233211977343436e-2 l 3.3333333333333214e-3,-2.793674791232212e-2 l 3.3333333333333214e-3,-2.7557752869887125e-2 l 3.3333333333333214e-3,-2.7096254306296225e-2 l 3.3333333333333214e-3,-2.655245105231377e-2 l 3.3333333333333214e-3,-2.5926713440630855e-2 l 3.3333333333333214e-3,-2.5219583111333266e-2 l 3.3333333333333214e-3,-2.4431772495335347e-2 l 3.3333333333333214e-3,-2.356416397631156e-2 l 3.3333333333333214e-3,-2.2617808732383782e-2 l 3.3333333333333214e-3,-2.159392525915943e-2 l 3.3333333333333214e-3,-2.04938975765645e-2 l 3.3333333333333214e-3,-1.9319273122197222e-2 l 3.3333333333333214e-3,-1.8071760334803733e-2 l 3.3333333333333214e-3,-1.6753225931755877e-2 l 3.3333333333333214e-3,-1.536569188514858e-2 l 3.3333333333333214e-3,-1.391133210165818e-2 l 3.3333333333333214e-3,-1.2392468811718793e-2 l 3.3333333333333214e-3,-1.0811568674290173e-2 l 3.3333333333333214e-3,-9.171238603837284e-3 l 3.3333333333333214e-3,-7.4742213267746105e-3 l 3.3333333333333214e-3,-5.72339067503691e-3 l 3.3333333333333214e-3,-3.92174662495437e-3 l 3.3333333333333214e-3,-2.0724100900952336e-3 l 3.3333333333333214e-3,-1.78617477136489e-4 l 3.3333333333333214e-3,1.7562849856803675e-3 l 3.3333333333333214e-3,3.728847137587088e-3 l 3.3333333333333214e-3,5.735520981471398e-3 l 3.3333333333333214e-3,7.77266697645429e-3 l 3.3333333333333214e-3,9.836560515795068e-3 l 3.3333333333333214e-3,1.1923398578681133e-2 l 3.3333333333333214e-3,1.4029306544121267e-2 l 3.3333333333333214e-3,1.6150345154916534e-2 l 3.3333333333333214e-3,1.82825176193242e-2 l 3.3333333333333214e-3,2.0421776837812433e-2 l 3.3333333333333214e-3,2.2564032742107e-2 l 3.3333333333333214e-3,2.4705159733378e-2 l 3.3333333333333214e-3,2.6841004206422325e-2 l 3.3333333333333214e-3,2.8967392146305115e-2 l 3.3333333333333214e-3,3.108013678399174e-2 l 3.3333333333333214e-3,3.317504629723289e-2 l 3.3333333333333214e-3,3.524793154286887e-2 l 3.3333333333333214e-3,3.729461380682941e-2 l 3.3333333333333214e-3,3.931093255773152e-2 l 3.3333333333333214e-3,4.129275319035966e-2 l 3.3333333333333214e-3,4.323597474486213e-2 l 3.3333333333333214e-3,4.513653758797803e-2 l 3.3333333333333214e-3,4.6990431042307684e-2 l 3.3333333333333214e-3,4.879370094982566e-2 l 3.3333333333333214e-3,5.054245715613209e-2 l 3.3333333333333214e-3,5.223288090161146e-2 l 3.3333333333333214e-3,5.386123210640362e-2 l 3.3333333333333214e-3,5.542385653563037e-2 l 3.3333333333333214e-3,5.691719283212662e-2 l 3.3333333333333214e-3,5.8337779403669895e-2 l 3.3333333333333214e-3,5.968226115212127e-2 l 3.3333333333333214e-3,6.0947396032363294e-2 l 3.3333333333333214e-3,6.213006142868341e-2 l 3.3333333333333214e-3,6.322726033720284e-2 l 3.3333333333333214e-3,6.42361273427516e-2 l 3.3333333333333214e-3,6.515393437913206e-2 l 3.3333333333333214e-3,6.597809626232393e-2 l 3.3333333333333214e-3,6.670617598597624e-2 l 3.3333333333333214e-3,6.733588976971763e-2 l 3.3333333333333214e-3,6.786511185040497e-2 l 3.3333333333333214e-3,6.82918790076732e-2 l 3.3333333333333214e-3,6.861439481498277e-2 l 3.3333333333333214e-3,6.88310336080849e-2 l 3.3333333333333214e-3,6.894034416354217e-2 l 3.3333333333333214e-3,6.894105307981668e-2 l 3.3333333333333214e-3,6.883206785478685e-2 l 3.3333333333333214e-3,6.861247965319428e-2 l 3.3333333333333214e-3,6.828156575888938e-2 l 3.3333333333333214e-3,6.78387917066684e-2 l 3.3333333333333214e-3,6.728381308928144e-2 l 3.3333333333333214e-3,6.661647703600376e-2 l 3.3333333333333214e-3,6.58368233591245e-2 l 3.3333333333333214e-3,6.494508536606536e-2 l 3.3333333333333214e-3,6.3941690334608e-2 l 3.3333333333333214e-3,6.28272596500693e-2 l 3.3333333333333214e-3,6.1602608603270936e-2 l 3.3333333333333214e-3,6.026874584895814e-2 l 3.3333333333333214e-3,5.8826872525152285e-2 l 3.3333333333333214e-3,5.727838103393901e-2 l 3.3333333333333214e-3,5.562485348551516e-2 l 3.3333333333333214e-3,5.38680598071698e-2 l 3.3333333333333214e-3,5.200995552015253e-2 l 3.3333333333333214e-3,5.005267918741907e-2 l 3.3333333333333214e-3,4.7998549536080404e-2 l 3.3333333333333214e-3,4.5850062259094826e-2 l 3.3333333333333214e-3,4.3609886500834194e-2 l 3.3333333333333214e-3,4.128086103232709e-2 l 3.3333333333333214e-3,3.8865990122014527e-2 l 3.3333333333333214e-3,3.636843910862997e-2 l 3.3333333333333214e-3,3.379152968343313e-2 l 3.3333333333333214e-3,3.113873488923169e-2 l 3.3333333333333214e-3,2.8413673844531195e-2 l 3.3333333333333214e-3,2.562010620120614e-2 l 3.3333333333333214e-3,2.2761926345004735e-2 l 3.3333333333333214e-3,1.9843157348290896e-2 l 3.3333333333333214e-3,1.6867944685046043e-2 l 3.3333333333333214e-3,1.3840549718645678e-2 l 3.3333333333333214e-3,1.0765342973098502e-2 l 3.3333333333333214e-3,7.646797199100996e-3 l 3.3333333333333214e-3,4.489480246407607e-3 l 3.3333333333333214e-3,1.2980477545215807e-3 l 3.3333333333333214e-3,-1.9227643260606442e-3 l 3.3333333333333214e-3,-5.168147369445597e-3 l 3.3333333333333214e-3,-8.433227853922087e-3 l 3.3333333333333214e-3,-1.1713075272367202e-2 l 3.3333333333333214e-3,-1.5002710160135324e-2 l 3.3333333333333214e-3,-1.8297112226778767e-2 l 3.3333333333333214e-3,-2.159122857787832e-2 l 3.3333333333333214e-3,-2.4879982012939283e-2 l 3.3333333333333214e-3,-2.8158279385273932e-2 l 3.3333333333333214e-3,-3.1421020009670064e-2 l 3.3333333333333214e-3,-3.4663104103400566e-2 l 3.3333333333333214e-3,-3.787944124629106e-2 l 3.3333333333333214e-3,-4.10649588452936e-2 l 3.3333333333333214e-3,-4.4214610589067393e-2 l 3.3333333333333214e-3,-4.7323384878220964e-2 l 3.3333333333333214e-3,-5.038631321651388e-2 l 3.3333333333333214e-3,-5.339847854890267e-2 l 3.3333333333333214e-3,-5.6355023531798e-2 l 3.3333333333333214e-3,-5.9251158721566166e-2 l 3.3333333333333214e-3,-6.208217066701249e-2 l 3.3333333333333214e-3,-6.484342989186298e-2 l 3.3333333333333214e-3,-6.753039875368616e-2 l 3.3333333333333214e-3,-7.013863916532226e-2 l 3.3333333333333214e-3,-7.266382016586737e-2 l 3.3333333333333214e-3,-7.510172532767712e-2 l 3.3333333333333214e-3,-7.744825998692201e-2 l 3.3333333333333214e-3,-7.969945828491193e-2 l 3.3333333333333214e-3,-8.185149000792352e-2 l 3.3333333333333214e-3,-8.390066721390088e-2 l 3.3333333333333214e-3,-8.584345063403748e-2 l 3.3333333333333214e-3,-8.767645583857003e-2 l 3.3333333333333214e-3,-8.939645915547123e-2 l 3.3333333333333214e-3,-9.100040333216347e-2 l 3.3333333333333214e-3,-9.248540292999632e-2 l 3.3333333333333214e-3,-9.384874944201e-2 l 3.3333333333333214e-3,-9.508791612527417e-2 l 3.3333333333333214e-3,-9.620056253875064e-2 l 3.3333333333333214e-3,-9.718453877922203e-2 l 3.3333333333333214e-3,-9.803788940715892e-2 l 3.3333333333333214e-3,-9.875885705605292e-2 l 3.3333333333333214e-3,-9.934588571841096e-2 l 3.3333333333333214e-3,-9.979762370247688e-2 l 3.3333333333333214e-3,-0.10011292625467431 l 3.3333333333333214e-3,-0.1002908578424164 l 3.3333333333333214e-3,-0.10033069409362151 l 3.3333333333333214e-3,-0.1002319233889451 l 3.3333333333333214e-3,-9.999424810368107e-2 l 3.3333333333333214e-3,-9.961758549724592e-2 l 3.3333333333333214e-3,-9.910206824782417e-2 l 3.3333333333333214e-3,-9.84480446315778e-2 l 3.3333333333333214e-3,-9.765607834514128e-2 l 3.3333333333333214e-3,-9.672694797194742e-2 l 3.3333333333333214e-3,-9.566164609260408e-2 l 3.3333333333333214e-3,-9.446137804052201e-2 l 3.3333333333333214e-3,-9.31275603049273e-2 l 3.3333333333333214e-3,-9.166181858311107e-2 l 3.3333333333333214e-3,-9.006598548552636e-2 l 3.3333333333333214e-3,-8.834209789671554e-2 l 3.3333333333333214e-3,-8.649239399678954e-2 l 3.3333333333333214e-3,-8.451930994787238e-2 l 3.3333333333333214e-3,-8.242547625087615e-2 l 3.3333333333333214e-3,-8.021371377879571e-2 l 3.3333333333333214e-3,-7.788702949249404e-2 l 3.3333333333333214e-3,-7.544861184651619e-2 l 3.3333333333333214e-3,-7.290182589193728e-2 l 3.3333333333333214e-3,-7.025020808474403e-2 l 3.3333333333333214e-3,-6.749746080801722e-2 l 3.3333333333333214e-3,-6.464744661698085e-2 l 3.3333333333333214e-3,-6.170418221667784e-2 l 3.3333333333333214e-3,-5.8671832181858896e-2 l 3.3333333333333214e-3,-5.555470242989535e-2 l 3.3333333333333214e-3,-5.2357233457305696e-2 l 3.3333333333333214e-3,-4.908399335116753e-2 l 3.3333333333333214e-3,-4.5739670587244485e-2 l 3.3333333333333214e-3,-4.2329066626528355e-2 l 3.3333333333333214e-3,-3.885708832284973e-2 l 3.3333333333333214e-3,-3.5328740153953486e-2 l 3.3333333333333214e-3,-3.174911628924926e-2 l 3.3333333333333214e-3,-2.8123392507331424e-2 l 3.3333333333333214e-3,-2.4456817976822753e-2 l 3.3333333333333214e-3,-2.0754706914369314e-2 l 3.3333333333333214e-3,-1.7022430133595612e-2 l 3.3333333333333214e-3,-1.3265406499330834e-2 l 3.3333333333333214e-3,-9.489094301263878e-3 l 3.3333333333333214e-3,-5.698982561599175e-3 l 3.3333333333333214e-3,-1.900582291190056e-3 l 3.3333333333333214e-3,1.9005822911720704e-3 l 3.3333333333333214e-3,5.698982561581856e-3 l 3.3333333333333214e-3,9.48909430124556e-3 l 3.3333333333333214e-3,1.3265406499312848e-2 l 3.3333333333333214e-3,1.7022430133579958e-2 l 3.3333333333333214e-3,2.0754706914349996e-2 l 3.3333333333333214e-3,2.4456817976807765e-2 l 3.3333333333333214e-3,2.8123392507311773e-2 l 3.3333333333333214e-3,3.1749116289234935e-2 l 3.3333333333333214e-3,3.53287401539335e-2 l 3.3333333333333214e-3,3.885708832283308e-2 l 3.3333333333333214e-3,4.232906662651603e-2 l 3.3333333333333214e-3,4.57396705872245e-2 l 3.3333333333333214e-3,4.908399335115654e-2 l 3.3333333333333214e-3,5.235723345728571e-2 l 3.3333333333333214e-3,5.555470242988669e-2 l 3.3333333333333214e-3,5.867183218184424e-2 l 3.3333333333333214e-3,6.170418221665752e-2 l 3.3333333333333214e-3,6.464744661697386e-2 l 3.3333333333333214e-3,6.749746080799723e-2 l 3.3333333333333214e-3,7.02502080847387e-2 l 3.3333333333333214e-3,7.290182589191796e-2 l 3.3333333333333214e-3,7.544861184650387e-2 l 3.3333333333333214e-3,7.788702949249038e-2 l 3.3333333333333214e-3,8.02137137787774e-2 l 3.3333333333333214e-3,8.242547625087449e-2 l 3.3333333333333214e-3,8.451930994785406e-2 l 3.3333333333333214e-3,8.649239399678921e-2 l 3.3333333333333214e-3,8.834209789669856e-2 l 3.3333333333333214e-3,9.006598548551836e-2 l 3.3333333333333214e-3,9.166181858311323e-2 l 3.3333333333333214e-3,9.312756030491132e-2 l 3.3333333333333214e-3,9.446137804052585e-2 l 3.3333333333333214e-3,9.566164609258893e-2 l 3.3333333333333214e-3,9.672694797195242e-2 l 3.3333333333333214e-3,9.76560783451273e-2 l 3.3333333333333214e-3,9.84480446315743e-2 l 3.3333333333333214e-3,9.910206824783183e-2 l 3.3333333333333214e-3,9.961758549723376e-2 l 3.3333333333333214e-3,9.999424810368973e-2 l 3.3333333333333214e-3,0.10023192338893402 l 3.3333333333333214e-3,0.10033069409363155 l 3.3333333333333214e-3,0.1002908578424169 l 3.3333333333333214e-3,0.10011292625466531 l 3.3333333333333214e-3,9.979762370248886e-2 l 3.3333333333335877e-3,9.934588571841334e-2 l 3.3333333333338544e-3,9.875885705607604e-2 l 3.3333333333338544e-3,9.803788940717224e-2 l 3.3333333333338544e-3,9.718453877923602e-2 l 3.3333333333338544e-3,9.620056253878412e-2 l 3.3333333333338544e-3,9.508791612528858e-2 l 3.3333333333338544e-3,9.384874944203381e-2 l 3.3333333333338544e-3,9.248540293001098e-2 l 3.3333333333338544e-3,9.100040333218729e-2 l 3.3333333333338544e-3,8.939645915548572e-2 l 3.3333333333338544e-3,8.767645583858436e-2 l 3.3333333333338544e-3,8.584345063406912e-2 l 3.3333333333338544e-3,8.390066721391504e-2 l 3.3333333333338544e-3,8.185149000794534e-2 l 3.3333333333338544e-3,7.969945828492558e-2 l 3.3333333333338544e-3,7.744825998694332e-2 l 3.3333333333338544e-3,7.51017253276896e-2 l 3.3333333333338544e-3,7.266382016588768e-2 l 3.3333333333338544e-3,7.013863916534058e-2 l 3.3333333333338544e-3,6.753039875369748e-2 l 3.3333333333338544e-3,6.484342989187997e-2 l 3.3333333333338544e-3,6.2082170667022485e-2 l 3.3333333333338544e-3,5.925115872158215e-2 l 3.3333333333338544e-3,5.6355023531806325e-2 l 3.3333333333338544e-3,5.339847854891666e-2 l 3.3333333333338544e-3,5.0386313216525536e-2 l 3.3333333333338544e-3,4.7323384878228625e-2 l 3.3333333333338544e-3,4.4214610589077386e-2 l 3.3333333333338544e-3,4.106495884529693e-2 l 3.3333333333338544e-3,3.7879441246299383e-2 l 3.3333333333338544e-3,3.46631041034039e-2 l 3.3333333333338544e-3,3.1421020009675726e-2 l 3.3333333333338544e-3,2.815827938527793e-2 l 3.3333333333338544e-3,2.4879982012940616e-2 l 3.3333333333338544e-3,2.159122857787965e-2 l 3.3333333333338544e-3,1.8297112226777767e-2 l 3.3333333333338544e-3,1.5002710160133326e-2 l 3.3333333333338544e-3,1.171307527236487e-2 l 3.3333333333338544e-3,8.433227853920422e-3 l 3.3333333333338544e-3,5.168147369440934e-3 l 3.3333333333338544e-3,1.9227643260559812e-3 l 3.3333333333338544e-3,-1.298047754527909e-3 l 3.3333333333338544e-3,-4.489480246414934e-3 l 3.3333333333338544e-3,-7.646797199107658e-3 l 3.3333333333338544e-3,-1.0765342973108494e-2 l 3.3333333333338544e-3,-1.3840549718656003e-2 l 3.3333333333338544e-3,-1.68679446850587e-2 l 3.3333333333338544e-3,-1.984315734829989e-2 l 3.3333333333338544e-3,-2.2761926345019057e-2 l 3.3333333333338544e-3,-2.5620106201217796e-2 l 3.3333333333338544e-3,-2.8413673844541187e-2 l 3.3333333333338544e-3,-3.1138734889252007e-2 l 3.3333333333338544e-3,-3.379152968344479e-2 l 3.3333333333338544e-3,-3.636843910864729e-2 l 3.3333333333338544e-3,-3.886599012202885e-2 l 3.3333333333338544e-3,-4.128086103234607e-2 l 3.3333333333338544e-3,-4.3609886500848516e-2 l 3.3333333333338544e-3,-4.585006225910815e-2 l 3.3333333333338544e-3,-4.7998549536105384e-2 l 3.3333333333338544e-3,-5.005267918743239e-2 l 3.3333333333338544e-3,-5.200995552017351e-2 l 3.3333333333338544e-3,-5.386805980718379e-2 l 3.3333333333338544e-3,-5.562485348552981e-2 l 3.3333333333338544e-3,-5.727838103395999e-2 l 3.3333333333338544e-3,-5.8826872525166274e-2 l 3.3333333333338544e-3,-6.026874584898512e-2 l 3.3333333333338544e-3,-6.160260860328359e-2 l 3.3333333333338544e-3,-6.282725965008962e-2 l 3.3333333333338544e-3,-6.394169033462016e-2 l 3.3333333333338544e-3,-6.494508536607885e-2 l 3.3333333333338544e-3,-6.583682335914381e-2 l 3.3333333333338544e-3,-6.661647703601459e-2 l 3.3333333333338544e-3,-6.728381308930642e-2 l 3.3333333333338544e-3,-6.783879170667856e-2 l 3.3333333333338544e-3,-6.828156575890654e-2 l 3.3333333333338544e-3,-6.861247965320261e-2 l 3.3333333333338544e-3,-6.883206785479534e-2 l 3.3333333333338544e-3,-6.89410530798315e-2 l 3.3333333333338544e-3,-6.894034416354833e-2 l 3.3333333333338544e-3,-6.883103360810522e-2 l 3.3333333333338544e-3,-6.861439481498693e-2 l 3.3333333333338544e-3,-6.829187900768419e-2 l 3.3333333333338544e-3,-6.786511185040772e-2 l 3.3333333333338544e-3,-6.733588976971971e-2 l 3.3333333333338544e-3,-6.670617598598394e-2 l 3.3333333333338544e-3,-6.597809626233021e-2 l 3.3333333333338544e-3,-6.515393437913751e-2 l 3.3333333333338544e-3,-6.423612734274914e-2 l 3.3333333333338544e-3,-6.322726033720583e-2 l 3.3333333333338544e-3,-6.21300614286788e-2 l 3.3333333333338544e-3,-6.0947396032357666e-2 l 3.3333333333338544e-3,-5.968226115212051e-2 l 3.3333333333338544e-3,-5.833777940366798e-2 l 3.3333333333338544e-3,-5.691719283212319e-2 l 3.3333333333338544e-3,-5.5423856535620375e-2 l 3.3333333333338544e-3,-5.3861232106392126e-2 l 3.3333333333338544e-3,-5.223288090160476e-2 l 3.3333333333338544e-3,-5.05424571561186e-2 l 3.3333333333338544e-3,-4.879370094981583e-2 l 3.3333333333338544e-3,-4.699043104229686e-2 l 3.3333333333338544e-3,-4.513653758796554e-2 l 3.3333333333338544e-3,-4.323597474484506e-2 l 3.3333333333338544e-3,-4.129275319034101e-2 l 3.3333333333338544e-3,-3.93109325577167e-2 l 3.3333333333338544e-3,-3.72946138068081e-2 l 3.3333333333338544e-3,-3.524793154285072e-2 l 3.3333333333338544e-3,-3.3175046297214905e-2 l 3.3333333333338544e-3,-3.1080136783971257e-2 l 3.3333333333338544e-3,-2.8967392146281468e-2 l 3.3333333333338544e-3,-2.684100420639768e-2 l 3.3333333333338544e-3,-2.470515973335652e-2 l 3.3333333333338544e-3,-2.2564032742081352e-2 l 3.3333333333338544e-3,-2.0421776837787287e-2 l 3.3333333333338544e-3,-1.8282517619299887e-2 l 3.3333333333338544e-3,-1.6150345154890222e-2 l 3.3333333333338544e-3,-1.4029306544095121e-2 l 3.3333333333338544e-3,-1.192339857865199e-2 l 3.3333333333338544e-3,-9.836560515769088e-3 l 3.3333333333338544e-3,-7.772666976425646e-3 l 3.3333333333338544e-3,-5.735520981444919e-3 l 3.3333333333338544e-3,-3.728847137558111e-3 l 3.3333333333338544e-3,-1.7562849856503915e-3 l 3.3333333333338544e-3,1.7861747716346743e-4 l 3.3333333333338544e-3,2.072410090123711e-3 l 3.3333333333338544e-3,3.921746624981848e-3 l 3.3333333333338544e-3,5.7233906750660535e-3 l 3.3333333333338544e-3,7.474221326802588e-3 l 3.3333333333338544e-3,9.171238603864762e-3 l 3.3333333333338544e-3,1.0811568674317318e-2 l 3.3333333333338544e-3,1.2392468811744606e-2 l 3.3333333333338544e-3,1.3911332101685159e-2 l 3.3333333333338544e-3,1.5365691885173394e-2 l 3.3333333333338544e-3,1.6753225931780025e-2 l 3.3333333333338544e-3,1.8071760334829712e-2 l 3.3333333333338544e-3,1.931927312222137e-2 l 3.3333333333338544e-3,2.049389757658615e-2 l 3.3333333333338544e-3,2.1593925259180413e-2 l 3.3333333333338544e-3,2.26178087324036e-2 l 3.3333333333338544e-3,2.3564163976330377e-2 l 3.3333333333338544e-3,2.4431772495354165e-2 l 3.3333333333338544e-3,2.521958311135325e-2 l 3.3333333333338544e-3,2.5926713440645843e-2 l 3.3333333333338544e-3,2.655245105232884e-2 l 3.3333333333338544e-3,2.7096254306309464e-2 l 3.3333333333338544e-3,2.7557752869897867e-2 l 3.3333333333338544e-3,2.7936747912332693e-2 l 3.3333333333338544e-3,2.8233211977351513e-2 l 3.3333333333338544e-3,2.8447288534277665e-2 l 3.3333333333338544e-3,2.8579291208916224e-2 l 3.3333333333338544e-3,2.8629702695936843e-2 l 3.3333333333338544e-3,2.8599173355085494e-2 l 3.3333333333338544e-3,2.8488519494156705e-2 l 3.3333333333338544e-3,2.829872134211639e-2 l 3.3333333333338544e-3,2.8030920716504565e-2 l 3.3333333333338544e-3,2.7686418389532674e-2 l 3.3333333333338544e-3,2.7266671158197003e-2 l 3.3333333333338544e-3,2.6773288623805e-2 l 3.3333333333338544e-3,2.620802968731159e-2 l 3.3333333333338544e-3,2.55727987670053e-2 l 3.3333333333338544e-3,2.4869641745749044e-2 l 3.3333333333338544e-3,2.410074165550244e-2 l 3.3333333333338544e-3,2.32684141071427e-2 l 3.3333333333338544e-3,2.2375102474349165e-2 l 3.3333333333338544e-3,2.142337284038176e-2 l 3.3333333333338544e-3,2.041590871740892e-2 l 3.3333333333338544e-3,1.935550554813771e-2 l 3.3333333333338544e-3,1.824506500003406e-2 l 3.3333333333338544e-3,1.7087589062812512e-2 l 3.3333333333338544e-3,1.5886173960097554e-2 l 3.3333333333338544e-3,1.4644003886696563e-2 l 3.3333333333338544e-3,1.3364344582978367e-2 l 3.3333333333338544e-3,1.205053675841535e-2 l 3.3333333333338544e-3,1.0705989376405505e-2 l 3.3333333333338544e-3,9.334172812842814e-3 l 3.3333333333338544e-3,7.938611901131234e-3 l 3.3333333333338544e-3,6.522878876475083e-3 l 3.3333333333338544e-3,5.090586232562273e-3 l 3.3333333333338544e-3,3.6453795037888715e-3 l 3.3333333333338544e-3,2.1909299864342926e-3 " /></g><g><g><g fill="rgb(0,0,0)" fill-opacity="1.0" fill-rule="evenodd"><g fill="rgb(0,0,0)" fill-opacity="1.0"><g fill="rgb(0,0,0)" fill-opacity="1.0"><path d="M -2.5062656641603454e-3,0.6033834586466165 ZM 0.380952380952381,0.26253132832080195 l 0.3132832080200501,0.3132832080200501 c 7.518796992481203e-3,7.518796992481203e-3 1.2531328320802004e-2,1.7543859649122806e-2 1.2531328320802004e-2 2.756892230576441e-2c 0.0,1.0025062656641603e-2 -5.012531328320802e-3,2.2556390977443608e-2 -1.2531328320802004e-2 3.007518796992481e-2l -0.3132832080200501,0.3132832080200501 c -7.518796992481203e-3,7.518796992481203e-3 -1.7543859649122806e-2,1.0025062656641603e-2 -2.756892230576441e-2 1.0025062656641603e-2c -1.0025062656641603e-2,0.0 -2.0050125313283207e-2,-2.506265664160401e-3 -2.756892230576441e-2 -1.0025062656641603e-2l -0.3132832080200501,-0.3132832080200501 c -1.0025062656641603e-2,-7.518796992481203e-3 -1.2531328320802004e-2,-2.0050125313283207e-2 -1.2531328320802004e-2 -3.007518796992481e-2c 0.0,-1.0025062656641603e-2 2.506265664160401e-3,-2.0050125313283207e-2 1.2531328320802004e-2 -2.756892230576441e-2l 0.3132832080200501,-0.3132832080200501 c 7.518796992481203e-3,-7.518796992481203e-3 1.7543859649122806e-2,-1.2531328320802004e-2 2.756892230576441e-2 -1.2531328320802004e-2c 1.0025062656641603e-2,0.0 2.0050125313283207e-2,5.012531328320802e-3 2.756892230576441e-2 1.2531328320802004e-2ZM 0.380952380952381,0.26253132832080195 ZM 0.3533834586466166,0.8615288220551378 l 0.2556390977443609,-0.2581453634085213 l -0.2556390977443609,-0.2556390977443609 l -0.2556390977443609,0.2556390977443609 Z" /></g></g></g><g></g><g fill="rgb(0,0,0)" fill-opacity="1.0" fill-rule="evenodd"><g fill="rgb(0,0,0)" fill-opacity="1.0"><g fill="rgb(0,0,0)" fill-opacity="1.0"><path d="M 1.1102230246251565e-16,-0.6033834586466165 ZM 0.38345864661654144,-0.944235588972431 l 0.3132832080200501,0.3132832080200501 c 7.518796992481203e-3,7.518796992481203e-3 1.0025062656641603e-2,2.0050125313283207e-2 1.0025062656641603e-2 3.007518796992481e-2c 0.0,1.0025062656641603e-2 -2.506265664160401e-3,2.0050125313283207e-2 -1.0025062656641603e-2 2.756892230576441e-2l -0.3132832080200501,0.3132832080200501 c -7.518796992481203e-3,7.518796992481203e-3 -1.7543859649122806e-2,1.0025062656641603e-2 -2.756892230576441e-2 1.0025062656641603e-2c -1.2531328320802004e-2,0.0 -2.2556390977443608e-2,-2.506265664160401e-3 -3.007518796992481e-2 -1.0025062656641603e-2l -0.3132832080200501,-0.3132832080200501 c -7.518796992481203e-3,-7.518796992481203e-3 -1.2531328320802004e-2,-1.7543859649122806e-2 -1.2531328320802004e-2 -2.756892230576441e-2c 0.0,-1.0025062656641603e-2 5.012531328320802e-3,-2.2556390977443608e-2 1.2531328320802004e-2 -3.007518796992481e-2l 0.3132832080200501,-0.3132832080200501 c 7.518796992481203e-3,-7.518796992481203e-3 1.7543859649122806e-2,-1.2531328320802004e-2 3.007518796992481e-2 -1.2531328320802004e-2c 1.0025062656641603e-2,0.0 2.0050125313283207e-2,5.012531328320802e-3 2.756892230576441e-2 1.2531328320802004e-2Z" /></g></g></g></g><g fill="rgb(0,0,0)" fill-opacity="1.0" fill-rule="evenodd"><g fill="rgb(0,0,0)" fill-opacity="1.0"><g fill="rgb(0,0,0)" fill-opacity="1.0"><path d="M -0.706766917293233,0.0 ZM -1.0025062656641603e-2,-2.756892230576441e-2 c 7.518796992481203e-3,7.518796992481203e-3 1.0025062656641603e-2,1.7543859649122806e-2 1.0025062656641603e-2 2.756892230576441e-2c 0.0,1.0025062656641603e-2 -2.506265664160401e-3,2.2556390977443608e-2 -1.0025062656641603e-2 3.007518796992481e-2l -0.3132832080200501,0.3132832080200501 c -7.518796992481203e-3,7.518796992481203e-3 -1.7543859649122806e-2,1.0025062656641603e-2 -3.007518796992481e-2 1.0025062656641603e-2c -1.0025062656641603e-2,0.0 -2.0050125313283207e-2,-2.506265664160401e-3 -2.756892230576441e-2 -1.0025062656641603e-2l -0.3132832080200501,-0.3132832080200501 c -7.518796992481203e-3,-7.518796992481203e-3 -1.2531328320802004e-2,-2.0050125313283207e-2 -1.2531328320802004e-2 -3.007518796992481e-2c 0.0,-1.0025062656641603e-2 5.012531328320802e-3,-2.0050125313283207e-2 1.2531328320802004e-2 -2.756892230576441e-2l 0.3132832080200501,-0.3132832080200501 c 7.518796992481203e-3,-7.518796992481203e-3 1.7543859649122806e-2,-1.2531328320802004e-2 2.756892230576441e-2 -1.2531328320802004e-2c 1.2531328320802004e-2,0.0 2.2556390977443608e-2,5.012531328320802e-3 3.007518796992481e-2 1.2531328320802004e-2ZM -1.0025062656641603e-2,-2.756892230576441e-2 ZM -0.3533834586466165,0.2581453634085213 l 0.2581453634085213,-0.2581453634085213 h -0.5137844611528821 Z" /></g></g></g></g><g fill="rgb(0,0,0)" fill-opacity="1.0" fill-rule="evenodd"><g fill="rgb(0,0,0)" fill-opacity="1.0"><g fill="rgb(0,0,0)" fill-opacity="1.0"><path d="M 1.2864661654135339,-7.894736842105199e-2 ZM 3.2172932330827066,-3.0248120300751875 c 0.27518796992481204,0.3744360902255639 0.4781954887218045,0.825563909774436 0.49624060150375937 1.3037593984962406v 3.1578947368421054e-2 c 0.0,0.24812030075187969 -9.022556390977443e-2,0.5819548872180451 -0.10827067669172932 0.6225563909774436c -2.706766917293233e-2,5.8646616541353384e-2 -5.8646616541353384e-2,8.120300751879699e-2 -9.022556390977443e-2 8.120300751879699e-2c -9.022556390977444e-3,0.0 -2.2556390977443608e-2,-4.511278195488722e-3 -3.1578947368421054e-2 -9.022556390977444e-3c -2.706766917293233e-2,-1.3533834586466165e-2 -6.766917293233082e-2,-4.962406015037594e-2 -6.766917293233082e-2 -0.10827067669172932c 0.0,-1.804511278195489e-2 4.511278195488722e-3,-3.609022556390978e-2 1.3533834586466165e-2 -5.8646616541353384e-2c 7.218045112781955e-2,-0.16691729323308271 9.924812030075188e-2,-0.34736842105263155 9.924812030075188e-2 -0.518796992481203c 0.0,-0.22556390977443608 -4.962406015037594e-2,-0.437593984962406 -9.924812030075188e-2 -0.5729323308270676c -0.18045112781954886,-0.5007518796992481 -0.4827067669172932,-0.6451127819548872 -0.6766917293233082 -0.6902255639097744v 2.6345864661654135 c -3.1578947368421054e-2,0.40601503759398494 -0.5548872180451128,0.793984962406015 -0.9834586466165414 0.793984962406015c -0.2706766917293233,0.0 -0.4827067669172932,-0.15338345864661654 -0.4827067669172932 -0.41503759398496237c 0.0,-0.42857142857142855 0.437593984962406,-0.8300751879699247 0.9834586466165414 -0.8300751879699247c 0.12180451127819548,0.0 0.22556390977443608,3.1578947368421054e-2 0.3112781954887218 8.571428571428572e-2v -3.365413533834586 c 0.0,-4.5112781954887216e-2 2.2556390977443608e-2,-4.5112781954887216e-2 4.962406015037594e-2 -4.5112781954887216e-2h 3.1578947368421054e-2 c 3.1578947368421054e-2,0.0 7.669172932330827e-2,9.022556390977444e-3 9.022556390977443e-2 8.120300751879699e-2c 7.669172932330827e-2,0.3609022556390977 0.25263157894736843,0.6766917293233082 0.46466165413533833 0.9789473684210525Z" /></g></g></g></g></g></g></g></svg>