<?xml version="1.0" encoding="UTF-8" standalone="no"?>
<svg
   xmlns:dc="http://purl.org/dc/elements/1.1/"
   xmlns:cc="http://creativecommons.org/ns#"
   xmlns:rdf="http://www.w3.org/1999/02/22-rdf-syntax-ns#"
   xmlns:svg="http://www.w3.org/2000/svg"
   xmlns="http://www.w3.org/2000/svg"
   xmlns:sodipodi="http://sodipodi.sourceforge.net/DTD/sodipodi-0.dtd"
   xmlns:inkscape="http://www.inkscape.org/namespaces/inkscape"
   version="1.1"
   width="120"
   height="96.75"
   font-size="1"
   viewBox="0 0 120 96.75"
   id="svg3145"
   inkscape:version="0.48.2 r9819"
   sodipodi:docname="logo3.svg"
   style="font-size:1px">
  <metadata
     id="metadata3217">
    <rdf:RDF>
      <cc:Work
         rdf:about="">
        <dc:format>image/svg+xml</dc:format>
        <dc:type
           rdf:resource="http://purl.org/dc/dcmitype/StillImage" />
      </cc:Work>
    </rdf:RDF>
  </metadata>
  <defs
     id="defs3215" />
  <sodipodi:namedview
     pagecolor="#ffffff"
     bordercolor="#666666"
     borderopacity="1"
     objecttolerance="10"
     gridtolerance="10"
     guidetolerance="10"
     inkscape:pageopacity="0"
     inkscape:pageshadow="2"
     inkscape:window-width="899"
     inkscape:window-height="628"
     id="namedview3213"
     showgrid="false"
     inkscape:zoom="1.5733333"
     inkscape:cx="42"
     inkscape:cy="30.819611"
     inkscape:window-x="0"
     inkscape:window-y="0"
     inkscape:window-maximized="0"
     inkscape:current-layer="svg3145"
     fit-margin-top="0"
     fit-margin-left="0"
     fit-margin-right="0"
     fit-margin-bottom="0" />
  <g
     id="g3147"
     inkscape:export-xdpi="114"
     inkscape:export-ydpi="114"
     transform="translate(-108,-65.25)">
    <g
       id="g3149"
       style="fill:#000000;fill-opacity:0">
      <g
         font-size="1.0em"
         stroke-miterlimit="10.0"
         id="g3151"
         style="stroke:#000000;stroke-width:0.01;stroke-linecap:butt;stroke-linejoin:miter;stroke-miterlimit:10;stroke-opacity:1">
        <g
           transform="matrix(12,0,0,12,150,150)"
           id="g3153">
          <g
             id="g3155"
             style="fill:#ffffff;fill-opacity:1">
            <g
               id="g3157"
               style="fill:#ffffff;fill-opacity:1" />
          </g>
          <g
             id="g3159"
             style="stroke:#dc143c;stroke-width:0.1;stroke-opacity:1">
            <path
               d="m -3.5,-0.75 h 10"
               id="path3161"
               inkscape:connector-curvature="0" />
          </g>
          <g
             id="g3163"
             style="stroke:#dc143c;stroke-width:0.1;stroke-opacity:1">
            <path
               d="m -3.5,-1.75 h 10"
               id="path3165"
               inkscape:connector-curvature="0" />
          </g>
          <g
             id="g3167"
             style="stroke:#dc143c;stroke-width:0.1;stroke-opacity:1">
            <path
               d="m -3.5,-2.75 h 10"
               id="path3169"
               inkscape:connector-curvature="0" />
          </g>
          <g
             id="g3171"
             style="stroke:#4682b4;stroke-width:0.05;stroke-opacity:1">
            <path
               d="m -2,-4 h 0 l 0.005,-7.309e-4 0.005,-0.00219 0.005,-0.00365 0.005,-0.00509 0.005,-0.00652 0.005,-0.00794 0.005,-0.00933 0.005,-0.010706 0.005,-0.01205 0.005,-0.013364 0.005,-0.014644 0.005,-0.015886 0.005,-0.017088 0.005,-0.018245 0.005,-0.019355 0.005,-0.020416 0.005,-0.021423 0.005,-0.022375 0.005,-0.023268 0.005,-0.024101 0.005,-0.02487 0.005,-0.025573 0.005,-0.026208 0.005,-0.026773 0.005,-0.027267 0.005,-0.027686 0.005,-0.028031 0.005,-0.028299 0.005,-0.028488 0.005,-0.028599 0.005,-0.02863 0.005,-0.028579 0.005,-0.028447 0.005,-0.028233 0.005,-0.027937 0.005,-0.027558 0.005,-0.027096 0.005,-0.026552 0.005,-0.025927 0.005,-0.02522 0.005,-0.024432 0.005,-0.023564 0.005,-0.022618 0.005,-0.021594 0.005,-0.020494 0.005,-0.019319 0.005,-0.018072 0.005,-0.016753 0.005,-0.015366 0.005,-0.013911 0.005,-0.012392 0.005,-0.010812 0.005,-0.00917 0.005,-0.00747 0.005,-0.00572 0.005,-0.00392 0.005,-0.00207 0.005,-1.786e-4 0.005,0.00176 0.005,0.00373 0.005,0.00574 0.005,0.00777 0.005,0.00984 0.005,0.011923 0.005,0.014029 0.005,0.01615 0.005,0.018283 0.005,0.020422 0.005,0.022564 0.005,0.024705 0.005,0.026841 0.005,0.028967 0.005,0.03108 0.005,0.033175 0.005,0.035248 0.005,0.037295 0.005,0.039311 0.005,0.041293 0.005,0.043236 0.005,0.045137 0.005,0.04699 0.005,0.048794 0.005,0.050542 0.005,0.052233 0.005,0.053861 0.005,0.055424 0.005,0.056917 0.005,0.058338 0.005,0.059682 L -1.55,-4 l 0.005,0.06213 0.005,0.063227 0.005,0.064236 0.005,0.065154 0.005,0.065978 0.005,0.066706 0.005,0.067336 0.005,0.067865 0.005,0.068292 0.005,0.068614 0.005,0.068831 0.005,0.06894 0.005,0.068941 0.005,0.068832 0.005,0.068612 0.005,0.068282 0.005,0.067839 0.005,0.067284 0.005,0.066617 0.005,0.065837 0.005,0.064945 0.005,0.063942 0.005,0.062827 0.005,0.061603 0.005,0.060269 0.005,0.058827 0.005,0.057278 0.005,0.055625 0.005,0.053868 0.005,0.05201 0.005,0.050053 0.005,0.047998 0.005,0.04585 0.005,0.04361 0.005,0.041281 0.005,0.038866 0.005,0.036368 0.005,0.033792 0.005,0.031139 0.005,0.028414 0.005,0.02562 0.005,0.022762 0.005,0.019843 0.005,0.016868 0.005,0.013841 0.005,0.010765 0.005,0.00765 0.005,0.00449 0.005,0.0013 0.005,-0.00192 0.005,-0.00517 0.005,-0.00843 0.005,-0.011713 0.005,-0.015003 0.005,-0.018297 0.005,-0.021591 0.005,-0.02488 0.005,-0.028158 0.005,-0.031421 0.005,-0.034663 0.005,-0.037879 0.005,-0.041065 0.005,-0.044215 0.005,-0.047323 0.005,-0.050386 0.005,-0.053399 0.005,-0.056355 0.005,-0.059251 0.005,-0.062082 0.005,-0.064843 0.005,-0.06753 0.005,-0.070139 0.005,-0.072664 0.005,-0.075102 0.005,-0.077448 0.005,-0.079699 0.005,-0.081851 0.005,-0.083901 0.005,-0.085843 0.005,-0.087676 0.005,-0.089397 0.005,-0.091 0.005,-0.092485 0.005,-0.093849 0.005,-0.095088 0.005,-0.096201 0.005,-0.097185 0.005,-0.098038 0.005,-0.098759 L -1.1,-4 l 0.005,-0.099798 0.005,-0.1001129 0.005,-0.1002909 0.005,-0.1003307 0.005,-0.1002319 0.005,-0.099994 0.005,-0.099618 0.005,-0.099102 0.005,-0.098448 0.005,-0.097656 0.005,-0.096727 0.005,-0.095662 0.005,-0.094461 0.005,-0.093128 0.005,-0.091662 0.005,-0.090066 0.005,-0.088342 0.005,-0.086492 0.005,-0.084519 0.005,-0.082425 0.005,-0.080214 0.005,-0.077887 0.005,-0.075449 0.005,-0.072902 0.005,-0.07025 0.005,-0.067497 0.005,-0.064647 0.005,-0.061704 0.005,-0.058672 0.005,-0.055555 0.005,-0.052357 0.005,-0.049084 0.005,-0.04574 0.005,-0.042329 0.005,-0.038857 0.005,-0.035329 0.005,-0.031749 0.005,-0.028123 0.005,-0.024457 0.005,-0.020755 0.005,-0.017022 0.005,-0.013265 0.005,-0.00949 0.005,-0.0057 0.005,-0.0019 0.005,0.0019 0.005,0.0057 0.005,0.00949 0.005,0.013265 0.005,0.017022 0.005,0.020755 0.005,0.024457 0.005,0.028123 0.005,0.031749 0.005,0.035329 0.005,0.038857 0.005,0.042329 0.005,0.04574 0.005,0.049084 0.005,0.052357 0.005,0.055555 0.005,0.058672 0.005,0.061704 0.005,0.064647 0.005,0.067497 0.005,0.07025 0.005,0.072902 0.005,0.075449 0.005,0.077887 0.005,0.080214 0.005,0.082425 0.005,0.084519 0.005,0.086492 0.005,0.088342 0.005,0.090066 0.005,0.091662 0.005,0.093128 0.005,0.094461 0.005,0.095662 0.005,0.096727 0.005,0.097656 0.005,0.098448 0.005,0.099102 0.005,0.099618 0.005,0.099994 0.005,0.1002319 0.005,0.1003307 0.005,0.1002909 0.005,0.1001129 L -0.65,-4 l 0.005,0.099346 0.005,0.098759 0.005,0.098038 0.005,0.097185 0.005,0.096201 0.005,0.095088 0.005,0.093849 0.005,0.092485 0.005,0.091 0.005,0.089397 0.005,0.087676 0.005,0.085843 0.005,0.083901 0.005,0.081851 0.005,0.079699 0.005,0.077448 0.005,0.075102 0.005,0.072664 0.005,0.070139 0.005,0.06753 0.005,0.064843 0.005,0.062082 0.005,0.059251 0.005,0.056355 0.005,0.053399 0.005,0.050386 0.005,0.047323 0.005,0.044215 0.005,0.041065 0.005,0.037879 0.005,0.034663 0.005,0.031421 0.005,0.028158 0.005,0.02488 0.005,0.021591 0.005,0.018297 0.005,0.015003 0.005,0.011713 0.005,0.00843 0.005,0.00517 0.005,0.00192 0.005,-0.0013 0.005,-0.00449 0.005,-0.00765 0.005,-0.010765 0.005,-0.013841 0.005,-0.016868 0.005,-0.019843 0.005,-0.022762 0.005,-0.02562 0.005,-0.028414 0.005,-0.031139 0.005,-0.033792 0.005,-0.036368 0.005,-0.038866 0.005,-0.041281 0.005,-0.04361 0.005,-0.04585 0.005,-0.047998 0.005,-0.050053 0.005,-0.05201 0.005,-0.053868 0.005,-0.055625 0.005,-0.057278 0.005,-0.058827 0.005,-0.060269 0.005,-0.061603 0.005,-0.062827 0.005,-0.063942 0.005,-0.064945 0.005,-0.065837 0.005,-0.066617 0.005,-0.067284 0.005,-0.067839 0.005,-0.068282 0.005,-0.068612 0.005,-0.068832 0.005,-0.068941 0.005,-0.06894 0.005,-0.068831 0.005,-0.068614 0.005,-0.068292 0.005,-0.067865 0.005,-0.067336 0.005,-0.066706 0.005,-0.065978 0.005,-0.065154 0.005,-0.064236 0.005,-0.063227 L -0.2,-4 l 0.005,-0.060947 0.005,-0.059682 0.005,-0.058338 0.005,-0.056917 0.005,-0.055424 0.005,-0.053861 0.005,-0.052233 0.005,-0.050542 0.005,-0.048794 0.005,-0.04699 0.005,-0.045137 0.005,-0.043236 0.005,-0.041293 0.005,-0.039311 0.005,-0.037295 0.005,-0.035248 0.005,-0.033175 0.005,-0.03108 0.005,-0.028967 0.005,-0.026841 0.005,-0.024705 0.005,-0.022564 0.005,-0.020422 0.005,-0.018283 0.005,-0.01615 0.005,-0.014029 0.005,-0.011923 0.005,-0.00984 0.005,-0.00777 0.005,-0.00574 0.005,-0.00373 0.005,-0.00176 0.005,1.786e-4 0.005,0.00207 0.005,0.00392 0.005,0.00572 0.005,0.00747 0.005,0.00917 0.005,0.010812 0.005,0.012392 0.005,0.013911 0.005,0.015366 0.005,0.016753 0.005,0.018072 0.005,0.019319 0.005,0.020494 0.005,0.021594 0.005,0.022618 0.005,0.023564 0.005,0.024432 0.005,0.02522 0.005,0.025927 0.005,0.026552 0.005,0.027096 0.005,0.027558 0.005,0.027937 0.005,0.028233 0.005,0.028447 0.005,0.028579 0.005,0.02863 0.005,0.028599 0.005,0.028488 0.005,0.028299 0.005,0.028031 0.005,0.027686 0.005,0.027267 0.005,0.026773 0.005,0.026208 0.005,0.025573 0.005,0.02487 0.005,0.024101 0.005,0.023268 0.005,0.022375 0.005,0.021423 0.005,0.020416 0.005,0.019355 0.005,0.018245 0.005,0.017088 0.005,0.015886 0.005,0.014644 0.005,0.013364 0.005,0.01205 0.005,0.010706 0.005,0.00933 0.005,0.00794 0.005,0.00652 0.005,0.00509 0.005,0.00365 0.005,0.00219 L 0.25,-4 l 0.005,-7.309e-4 0.005,-0.00219 0.005,-0.00365 0.005,-0.00509 0.005,-0.00652 0.005,-0.00794 0.005,-0.00933 0.005,-0.010706 0.005,-0.01205 0.005,-0.013364 0.005,-0.014644 0.005,-0.015886 0.005,-0.017088 0.005,-0.018245 0.005,-0.019355 0.005,-0.020416 0.005,-0.021423 0.005,-0.022375 0.005,-0.023268 0.005,-0.024101 0.005,-0.02487 0.005,-0.025573 0.005,-0.026208 0.005,-0.026773 0.005,-0.027267 0.005,-0.027686 0.005,-0.028031 0.005,-0.028299 0.005,-0.028488 0.005,-0.028599 0.005,-0.02863 0.005,-0.028579 0.005,-0.028447 0.005,-0.028233 0.005,-0.027937 0.005,-0.027558 0.005,-0.027096 0.005,-0.026552 0.005,-0.025927 0.005,-0.02522 0.005,-0.024432 0.005,-0.023564 0.005,-0.022618 0.005,-0.021594 0.005,-0.020494 0.005,-0.019319 0.005,-0.018072 0.005,-0.016753 0.005,-0.015366 0.005,-0.013911 0.005,-0.012392 0.005,-0.010812 0.005,-0.00917 0.005,-0.00747 0.005,-0.00572 0.005,-0.00392 0.005,-0.00207 0.005,-1.786e-4 0.005,0.00176 0.005,0.00373 0.005,0.00574 0.005,0.00777 0.005,0.00984 0.005,0.011923 0.005,0.014029 0.005,0.01615 0.005,0.018283 0.005,0.020422 0.005,0.022564 0.005,0.024705 0.005,0.026841 0.005,0.028967 0.005,0.03108 0.005,0.033175 0.005,0.035248 0.005,0.037295 0.005,0.039311 0.005,0.041293 0.005,0.043236 0.005,0.045137 0.005,0.04699 0.005,0.048794 0.005,0.050542 0.005,0.052233 0.005,0.053861 0.005,0.055424 0.005,0.056917 0.005,0.058338 0.005,0.059682 L 0.7,-4 l 0.005,0.06213 0.005,0.063227 0.005,0.064236 0.005,0.065154 0.005,0.065978 0.005,0.066706 0.005,0.067336 0.005,0.067865 0.005,0.068292 0.005,0.068614 0.005,0.068831 0.005,0.06894 0.005,0.068941 0.005,0.068832 0.005,0.068612 0.005,0.068282 0.005,0.067839 0.005,0.067284 0.005,0.066617 0.005,0.065837 0.005,0.064945 0.005,0.063942 0.005,0.062827 0.005,0.061603 0.005,0.060269 0.005,0.058827 0.005,0.057278 0.005,0.055625 0.005,0.053868 0.005,0.05201 0.005,0.050053 0.005,0.047998 0.005,0.04585 0.005,0.04361 0.005,0.041281 0.005,0.038866 0.005,0.036368 0.005,0.033792 0.005,0.031139 0.005,0.028414 0.005,0.02562 0.005,0.022762 0.005,0.019843 0.005,0.016868 0.005,0.013841 0.005,0.010765 0.005,0.00765 0.005,0.00449 0.005,0.0013 0.005,-0.00192 0.005,-0.00517 L 0.96,-1.564263 0.965,-1.575976 0.97,-1.590979 0.975,-1.609276 0.98,-1.630867 0.985,-1.655747 0.99,-1.683905 0.995,-1.715326 1,-1.75 1.005,-1.787879 1.01,-1.828944 1.015,-1.873159 1.02,-1.920482 1.025,-1.970868 1.03,-2.024267 1.035,-2.080622 1.04,-2.139873 1.045,-2.201955 1.05,-2.266798 1.055,-2.334328 1.06,-2.404467 1.065,-2.477131 1.07,-2.552233 1.075,-2.629681 1.08,-2.70938 1.085,-2.791231 1.09,-2.875132 1.095,-2.960975 1.1,-3.048651 1.105,-3.138048 1.11,-3.229048 1.115,-3.321533 1.12,-3.415382 1.125,-3.51047 1.13,-3.606671 1.135,-3.703856 1.14,-3.801894 1.145,-3.900653 1.15,-4 1.155,-4.0997976 1.16,-4.1999105 1.165,-4.3002014 1.17,-4.4005321 1.175,-4.500764 1.18,-4.600758 1.185,-4.700376 1.19,-4.799478 1.195,-4.897926 1.2,-4.995582 1.205,-5.092309 1.21,-5.187971 1.215,-5.282432 1.22,-5.37556 1.225,-5.467222 1.23,-5.557288 1.235,-5.64563 1.24,-5.732122 1.245,-5.816641 1.25,-5.899066 1.255,-5.97928 1.26,-6.057167 1.265,-6.132616 1.27,-6.205518 1.275,-6.275768 1.28,-6.343265 1.285,-6.407912 1.29,-6.469616 1.295,-6.528288 1.3,-6.583843 1.305,-6.6362 1.31,-6.685284 1.315,-6.731024 1.32,-6.773353 1.325,-6.81221 1.33,-6.847539 1.335,-6.879288 1.34,-6.907411 1.345,-6.931868 1.35,-6.952623 1.355,-6.969645 1.36,-6.98291 1.365,-6.9924 1.37,-6.9981 1.375,-7 l 0.005,0.0019 0.005,0.0057 0.005,0.00949 0.005,0.013265 0.005,0.017022 0.005,0.020755 0.005,0.024457 0.005,0.028123 0.005,0.031749 0.005,0.035329 0.005,0.038857 0.005,0.042329 0.005,0.04574 0.005,0.049084 0.005,0.052357 0.005,0.055555 0.005,0.058672 0.005,0.061704 0.005,0.064647 0.005,0.067497 0.005,0.07025 0.005,0.072902 0.005,0.075449 0.005,0.077887 0.005,0.080214 0.005,0.082425 0.005,0.084519 0.005,0.086492 0.005,0.088342 0.005,0.090066 0.005,0.091662 0.005,0.093128 0.005,0.094461 0.005,0.095662 0.005,0.096727 0.005,0.097656 0.005,0.098448 0.005,0.099102 0.005,0.099618 0.005,0.099994 0.005,0.1002319 0.005,0.1003307 0.005,0.1002909 0.005,0.1001129 L 1.6,-4 l 0.005,0.099346 0.005,0.098759 0.005,0.098038 0.005,0.097185 0.005,0.096201 0.005,0.095088 0.005,0.093849 0.005,0.092485 0.005,0.091 0.005,0.089397 0.005,0.087676 0.005,0.085843 0.005,0.083901 0.005,0.081851 0.005,0.079699 0.005,0.077448 0.005,0.075102 0.005,0.072664 0.005,0.070139 0.005,0.06753 0.005,0.064843 0.005,0.062082 0.005,0.059251 0.005,0.056355 0.005,0.053399 0.005,0.050386 0.005,0.047323 0.005,0.044215 0.005,0.041065 0.005,0.037879 0.005,0.034663 0.005,0.031421 0.005,0.028158 0.005,0.02488 0.005,0.021591 0.005,0.018297 0.005,0.015003 0.005,0.011713 0.005,0.00843 0.005,0.00517 0.005,0.00192 0.005,-0.0013 0.005,-0.00449 L 1.82,-1.562195 1.825,-1.57296 1.83,-1.586801 1.835,-1.603669 1.84,-1.623512 1.845,-1.646274 1.85,-1.671894 1.855,-1.700308 1.86,-1.731447 1.865,-1.765239 1.87,-1.801607 1.875,-1.840473 1.88,-1.881754 1.885,-1.925364 1.89,-1.971214 1.895,-2.019212 1.9,-2.069265 1.905,-2.121275 1.91,-2.175143 1.915,-2.230768 1.92,-2.288046 1.925,-2.346873 1.93,-2.407142 1.935,-2.468745 1.94,-2.531572 1.945,-2.595514 1.95,-2.660459 1.955,-2.726296 1.96,-2.792913 1.965,-2.860197 1.97,-2.928036 1.975,-2.996318 1.98,-3.06493 1.985,-3.133762 1.99,-3.202703 1.995,-3.271643 2,-3.340474 2.005,-3.409088 2.01,-3.47738 2.015,-3.545245 2.02,-3.612581 2.025,-3.679287 2.03,-3.745265 2.035,-3.810419 2.04,-3.874655 2.045,-3.937882 2.05,-4 2.055,-4.060947 2.06,-4.120629 2.065,-4.178967 2.07,-4.235884 2.075,-4.291308 2.08,-4.345169 2.085,-4.397402 2.09,-4.447944 2.095,-4.496738 2.1,-4.543728 2.105,-4.588865 2.11,-4.632101 2.115,-4.673394 2.12,-4.712705 2.125,-4.75 2.13,-4.785248 2.135,-4.818423 2.14,-4.849503 2.145,-4.87847 2.15,-4.905311 2.155,-4.930016 2.16,-4.95258 2.165,-4.973002 2.17,-4.991285 l 0.005,-0.01615 0.005,-0.014029 0.005,-0.011923 0.005,-0.00984 0.005,-0.00777 0.005,-0.00574 0.005,-0.00373 0.005,-0.00176 0.005,1.786e-4 0.005,0.00207 0.005,0.00392 0.005,0.00572 0.005,0.00747 0.005,0.00917 0.005,0.010812 0.005,0.012392 0.005,0.013911 0.005,0.015366 0.005,0.016753 0.005,0.018072 0.005,0.019319 0.005,0.020494 0.005,0.021594 0.005,0.022618 0.005,0.023564 0.005,0.024432 0.005,0.02522 0.005,0.025927 0.005,0.026552 0.005,0.027096 0.005,0.027558 0.005,0.027937 0.005,0.028233 0.005,0.028447 0.005,0.028579 0.005,0.02863 0.005,0.028599 0.005,0.028488 0.005,0.028299 0.005,0.028031 0.005,0.027686 0.005,0.027267 0.005,0.026773 0.005,0.026208 0.005,0.025573 0.005,0.02487 0.005,0.024101 0.005,0.023268 0.005,0.022375 0.005,0.021423 0.005,0.020416 0.005,0.019355 0.005,0.018245 0.005,0.017088 0.005,0.015886 0.005,0.014644 0.005,0.013364 0.005,0.01205 0.005,0.010706 0.005,0.00933 0.005,0.00794 0.005,0.00652 0.005,0.00509 0.005,0.00365 0.005,0.00219"
               id="path3173"
               inkscape:connector-curvature="0" />
          </g>
          <g
             id="g3175">
            <g
               id="g3177">
              <g
                 id="g3179"
                 style="fill:#000000;fill-opacity:1;fill-rule:evenodd">
                <g
                   id="g3181"
                   style="fill:#000000;fill-opacity:1">
                  <g
                     id="g3183"
                     style="fill:#000000;fill-opacity:1">
                    <path
                       d="M -0.00250627,0.60338346 z M 0.38095238,0.26253133 0.69423559,0.57581454 c 0.007519,0.007519 0.0125313,0.0175439 0.0125313,0.0275689 0,0.0100251 -0.005013,0.0225564 -0.0125313,0.0300752 l -0.31328321,0.3132832 c -0.007519,0.007519 -0.0175439,0.0100251 -0.0275689,0.0100251 -0.0100251,0 -0.0200501,-0.002506 -0.0275689,-0.0100251 L 0.01253133,0.63345865 C 0.00250627,0.62593985 0,0.61340852 0,0.60338346 0,0.5933584 0.00250627,0.58333333 0.01253133,0.57581454 L 0.32581454,0.26253133 C 0.33333333,0.25501253 0.3433584,0.25 0.35338346,0.25 c 0.0100251,0 0.0200501,0.005013 0.0275689,0.0125313 z m 0,0 z m -0.0275689,0.59899749 0.2556391,-0.25814536 -0.2556391,-0.2556391 -0.2556391,0.2556391 z"
                       id="path3185"
                       inkscape:connector-curvature="0" />
                  </g>
                </g>
              </g>
              <g
                 id="g3187" />
              <g
                 id="g3189"
                 style="fill:#dc143c;fill-opacity:1;fill-rule:evenodd;stroke:#dc143c;stroke-opacity:1">
                <g
                   id="g3191"
                   style="fill:#dc143c;fill-opacity:1">
                  <g
                     id="g3193"
                     style="fill:#dc143c;fill-opacity:1">
                    <path
                       d="m 0,-0.60338346 z m 0.38345865,-0.34085213 0.3132832,0.31328321 c 0.007519,0.007519 0.0100251,0.0200501 0.0100251,0.0300752 0,0.0100251 -0.002506,0.0200501 -0.0100251,0.0275689 l -0.3132832,0.31328321 C 0.37593985,-0.25250627 0.36591479,-0.25 0.35588972,-0.25 c -0.0125313,0 -0.0225564,-0.002506 -0.0300752,-0.0100251 L 0.01253133,-0.57330827 C 0.00501253,-0.58082707 0,-0.59085213 0,-0.60087719 c 0,-0.0100251 0.00501253,-0.0225564 0.01253133,-0.0300752 L 0.32581454,-0.9442356 c 0.007519,-0.007519 0.0175439,-0.0125313 0.0300752,-0.0125313 0.0100251,0 0.0200501,0.005013 0.0275689,0.0125313 z"
                       id="path3195"
                       inkscape:connector-curvature="0" />
                  </g>
                </g>
              </g>
            </g>
            <g
               id="g3197"
               style="fill:#000000;fill-opacity:1;fill-rule:evenodd">
              <g
                 id="g3199"
                 style="fill:#000000;fill-opacity:1">
                <g
                   id="g3201"
                   style="fill:#000000;fill-opacity:1">
                  <path
                     d="m -0.70676692,0 z m 0.69674186,-0.02756892 C -0.00250627,-0.02005013 0,-0.01002506 0,0 0,0.01002506 -0.00250627,0.02255639 -0.01002506,0.03007519 L -0.32330827,0.3433584 c -0.007519,0.007519 -0.0175439,0.0100251 -0.0300752,0.0100251 -0.0100251,0 -0.0200501,-0.002506 -0.0275689,-0.0100251 L -0.69423559,0.03007519 C -0.70175439,0.02255639 -0.70676692,0.01002506 -0.70676692,0 c 0,-0.01002506 0.005013,-0.02005013 0.0125313,-0.02756892 l 0.31328321,-0.31328321 c 0.007519,-0.007519 0.0175439,-0.0125313 0.0275689,-0.0125313 0.0125313,0 0.0225564,0.005013 0.0300752,0.0125313 z m 0,0 z M -0.35338346,0.25814536 -0.0952381,0 h -0.51378446 z"
                     id="path3203"
                     inkscape:connector-curvature="0" />
                </g>
              </g>
            </g>
          </g>
          <g
             id="g3205"
             style="fill:#000000;fill-opacity:1;fill-rule:evenodd">
            <g
               id="g3207"
               style="fill:#000000;fill-opacity:1">
              <g
                 id="g3209"
                 style="fill:#000000;fill-opacity:1">
                <path
                   d="M 1.2864662,-0.07894737 z M 3.2172932,-3.024812 c 0.275188,0.3744361 0.4781955,0.8255639 0.4962406,1.3037594 v 0.031579 c 0,0.2481203 -0.090225,0.5819549 -0.1082706,0.6225564 -0.027068,0.058647 -0.058647,0.081203 -0.090226,0.081203 -0.00902,0 -0.022556,-0.004511 -0.031579,-0.009023 -0.027068,-0.0135339 -0.067669,-0.0496241 -0.067669,-0.1082707 0,-0.018045 0.00451,-0.03609 0.013534,-0.058647 0.07218,-0.1669173 0.099248,-0.3473685 0.099248,-0.518797 0,-0.2255639 -0.049624,-0.437594 -0.099248,-0.5729324 -0.180451,-0.500751 -0.4827067,-0.6451119 -0.6766916,-0.6902247 v 2.63458644 c -0.031579,0.40601504 -0.5548872,0.79398497 -0.9834587,0.79398497 -0.2706767,0 -0.4827067,-0.15338346 -0.4827067,-0.4150376 0,-0.42857143 0.437594,-0.83007519 0.9834586,-0.83007519 0.1218045,0 0.2255639,0.0315789 0.3112782,0.0857143 V -4.0398496 c 0,-0.045113 0.022556,-0.045113 0.049624,-0.045113 h 0.031579 c 0.031579,0 0.076692,0.00902 0.090226,0.081203 0.076692,0.3609023 0.2526316,0.6766917 0.4646616,0.9789474 z"
                   id="path3211"
                   inkscape:connector-curvature="0" />
              </g>
            </g>
          </g>
        </g>
      </g>
    </g>
  </g>
</svg>
